<?xml version="1.0" encoding="utf-8"?>
<!-- Generator: Adobe Illustrator 26.0.1, SVG Export Plug-In . SVG Version: 6.00 Build 0)  -->
<svg width="2000" height="2000" version="1.1" id="Слой_1" xmlns="http://www.w3.org/2000/svg" xmlns:xlink="http://www.w3.org/1999/xlink" x="0px" y="0px"
	 viewBox="0 0 2000 1000" style="enable-background:new 0 0 2000 1000;" xml:space="preserve">
<style type="text/css">
	.st0{fill:none;}
	.st1{fill:#F39D37;}
</style>
<rect x="0.4" y="2.6" class="st0" width="2000" height="1000"/>
<g id="Слой_3">
	<path class="st1" d="M492.4,783.6C333.9,787.3,209,652.6,209.5,506c0.6-161.7,123.2-286.1,284.3-286.3
		c153.6-0.2,281.6,126.7,281.2,280.6C774.5,672.3,632.6,787.6,492.4,783.6z M443.5,347.5c-16.8-12.8-41-10.9-54.6,5.3
		c-9.1,10.8-11.8,25.6-6.3,40.1c3.6,9.4,9.5,18,14.6,26.9c31.1,54.4,31.3,108.9,0.4,163.5c-5,8.9-10.9,17.4-14.8,26.8
		c-8.3,19.5-0.9,41.2,16.4,51.3c18.2,10.6,41.3,5.5,54.1-12.6c5.9-8.3,10.6-17.4,15.8-26.3c23.4-40.1,57.2-66.8,103.1-75.2
		c20.6-3.8,42.1-2.8,63.2-4.2c23.5-1.6,41-18.9,41.4-40.4c0.4-20.8-15.1-37.6-38.1-40.5c-10.1-1.3-20.4-1.1-30.6-1.2
		c-61.8-0.6-108.4-27.4-139.7-80.7c-4.8-8.1-8.2-17.6-14.7-24C450.4,353.1,446.9,350.1,443.5,347.5z"/>
	<path class="st1" d="M1341.4,398c-1.1,15.8-1.7,25.8-2.4,35.8c-1.6,22.9-16,38.3-36.2,38.7c-19.8,0.4-37.2-15.1-38.3-37
		c-1.3-25.1-1.2-50.2-0.1-75.3c0.9-21.8,15.8-36.9,38.1-37.2c73.9-0.7,147.8-1,221.7,0.6c11.3,0.3,25,9.6,32.8,18.8
		c17.2,20.3,31.2,43.2,46.8,64.9c4.9,6.8,10.6,13,18.4,22.3c8.3-7.9,51.5-63.9,67.1-85.6c16.1-22.2,35.6-27.1,54.4-14.3
		c17.8,12.2,21.4,35.1,7.2,56.3c-18.3,27.4-37.8,54.1-56.5,81.2c-19.1,27.6-19.2,41.4-0.5,68.5c16,23.3,32.4,46.3,48.6,69.5
		c3.6,5.1,7.4,10.2,10.6,15.6c11.4,19.1,7.9,41.3-8.1,52.7c-15.7,11.3-39.1,7.9-52.4-9.6c-17.1-22.5-61.7-81.1-69.9-88.8
		c-8.2,9.4-49.5,66-65.4,87.4c-13.5,18.3-34.9,22.9-51.7,12.3c-17.5-11-22.6-34.4-9.8-54c17.6-27,36.7-52.9,55.1-79.3
		c24.3-34.9,24.3-44.6-0.4-80c-13-18.7-26.3-37.1-39.7-55.6c-1.8-2.5-4.5-4.3-9.1-8.5C1450,397.6,1396.5,396.9,1341.4,398z"/>
	<path class="st1" d="M1055.4,680.2c-99.2-0.3-178.9-79.7-178.5-177.9c0.4-99.8,81-180.1,180.1-179.6
		c97.5,0.5,177.3,81.6,177.3,180.1C1234.3,601.1,1154.3,680.5,1055.4,680.2z M1055.1,605c57.4,0.2,103.7-45.2,104.2-102.1
		c0.5-56.2-46.4-104.5-102.2-105.2c-57.4-0.7-105.2,46.7-105.2,104.4C951.9,559.4,997.5,604.9,1055.1,605z"/>
	<path class="st1" d="M1264.2,634.3c2.7-80.9,66.7-153.5,146.7-166.3c10-1.6,20.1-4.3,30.2-4.2c23.1,0.4,39.2,16.8,39.2,38.2
		c0,21.4-13.3,34.5-37.2,36.5c-60.1,5.1-98.5,42.6-103.9,101.4c-2.6,28.1-16.9,41.8-41.4,39.8C1276,678,1263.3,660.8,1264.2,634.3z"
		/>
</g>
</svg>
